<svg width="676" height="269" viewBox="0 0 676 269" fill="none" xmlns="http://www.w3.org/2000/svg">
<g filter="url(#filter0_f_269_247)">
<path d="M164.53 144.782L168.79 145.686L153.817 193.184L18.2919 193.184L18.2919 188.408L24.8746 188.408C32.2747 188.408 37.5667 185.999 40.7504 181.18C42.5574 178.427 43.4609 172.059 43.4609 162.078L43.4609 49.14C43.4609 38.2119 42.2563 31.3711 39.8469 28.6176C36.4911 24.8315 31.5003 22.9385 24.8746 22.9385L18.2919 22.9385L18.2919 18.1628L97.542 18.1628L97.542 22.9385C88.2488 22.8524 81.7092 23.7129 77.9231 25.5199C74.223 27.3269 71.6846 29.6072 70.3079 32.3607C68.9311 35.1142 68.2427 41.6969 68.2427 52.1087L68.2427 162.078C68.2427 169.22 68.9311 174.124 70.3079 176.792C71.3404 178.599 72.9323 179.933 75.0835 180.793C77.2347 181.654 83.9464 182.084 95.2187 182.084L107.997 182.084C121.42 182.084 130.843 181.094 136.264 179.115C141.685 177.136 146.632 173.651 151.107 168.66C155.581 163.584 160.056 155.624 164.53 144.782ZM176.302 119.484C176.216 137.038 180.475 150.806 189.08 160.787C197.684 170.769 207.795 175.759 219.412 175.759C227.156 175.759 233.868 173.651 239.547 169.435C245.312 165.132 250.131 157.818 254.003 147.493L258.004 150.074C256.197 161.863 250.948 172.619 242.257 182.342C233.566 191.979 222.681 196.798 209.602 196.798C195.404 196.798 183.228 191.291 173.075 180.277C163.007 169.177 157.973 154.29 157.973 135.618C157.973 115.397 163.136 99.6501 173.462 88.3778C183.874 77.0195 196.91 71.3403 212.571 71.3403C225.822 71.3403 236.707 75.7288 245.226 84.5057C253.745 93.1965 258.004 104.856 258.004 119.484L176.302 119.484ZM176.302 111.998L231.028 111.998C230.598 104.426 229.694 99.0908 228.317 95.9931C226.166 91.1744 222.939 87.3883 218.637 84.6347C214.421 81.8812 209.989 80.5044 205.343 80.5044C198.201 80.5044 191.79 83.301 186.111 88.8941C180.518 94.4012 177.248 102.102 176.302 111.998ZM279.068 150.074C271.84 146.546 266.29 141.641 262.418 135.36C258.546 128.992 256.61 121.979 256.61 114.321C256.61 102.619 260.998 92.5511 269.775 84.1184C278.638 75.6858 289.954 71.4694 303.721 71.4694C314.993 71.4694 324.76 74.2229 333.02 79.73L358.06 79.73C361.76 79.73 363.912 79.8591 364.514 80.1172C365.116 80.2893 365.547 80.6335 365.805 81.1498C366.321 81.9242 366.579 83.301 366.579 85.2801C366.579 87.5173 366.364 89.0662 365.934 89.9267C365.676 90.3569 365.202 90.7011 364.514 90.9592C363.912 91.2174 361.76 91.3465 358.06 91.3465L342.701 91.3465C347.52 97.5419 349.929 105.458 349.929 115.096C349.929 126.11 345.713 135.532 337.28 143.362C328.847 151.193 317.532 155.108 303.334 155.108C297.483 155.108 291.502 154.247 285.393 152.526C281.607 155.796 279.025 158.679 277.649 161.174C276.358 163.584 275.713 165.649 275.713 167.37C275.713 168.833 276.401 170.252 277.778 171.629C279.241 173.006 282.037 173.995 286.167 174.598C288.577 174.942 294.6 175.243 304.237 175.501C321.963 175.931 333.451 176.534 338.7 177.308C346.702 178.427 353.07 181.396 357.802 186.214C362.621 191.033 365.03 196.97 365.03 204.026C365.03 213.749 360.47 222.871 351.349 231.389C337.925 243.952 320.414 250.234 298.816 250.234C282.209 250.234 268.183 246.491 256.739 239.005C250.285 234.702 247.059 230.228 247.059 225.581C247.059 223.516 247.532 221.451 248.478 219.386C249.941 216.202 252.953 211.77 257.514 206.091C258.116 205.317 262.504 200.67 270.679 192.151C266.204 189.484 263.021 187.118 261.128 185.053C259.321 182.901 258.417 180.492 258.417 177.825C258.417 174.813 259.622 171.285 262.031 167.241C264.526 163.196 270.206 157.474 279.068 150.074ZM301.527 77.6649C295.159 77.6649 289.824 80.2033 285.522 85.2801C281.22 90.3569 279.068 98.1442 279.068 108.642C279.068 122.238 281.994 132.778 287.845 140.265C292.32 145.944 297.999 148.783 304.883 148.783C311.422 148.783 316.8 146.331 321.017 141.426C325.233 136.522 327.341 128.82 327.341 118.322C327.341 104.641 324.373 93.9279 318.435 86.1836C314.047 80.5044 308.411 77.6649 301.527 77.6649ZM277.778 193.184C273.734 197.573 270.679 201.66 268.614 205.446C266.549 209.232 265.516 212.717 265.516 215.901C265.516 220.031 268.011 223.645 273.002 226.743C281.607 232.078 294.041 234.745 310.304 234.745C325.792 234.745 337.194 231.992 344.508 226.485C351.908 221.064 355.608 215.255 355.608 209.06C355.608 204.585 353.414 201.402 349.025 199.509C344.551 197.616 335.688 196.497 322.437 196.153C303.076 195.636 288.19 194.647 277.778 193.184ZM420.17 176.147C408.037 185.526 400.422 190.947 397.324 192.41C392.677 194.561 387.73 195.636 382.481 195.636C374.306 195.636 367.551 192.84 362.217 187.247C356.968 181.654 354.343 174.297 354.343 165.175C354.343 159.41 355.634 154.42 358.215 150.203C361.743 144.352 367.853 138.845 376.543 133.682C385.32 128.519 399.862 122.238 420.17 114.838L420.17 110.191C420.17 98.4024 418.277 90.3139 414.491 85.9254C410.791 81.537 405.37 79.3428 398.228 79.3428C392.807 79.3428 388.504 80.8056 385.32 83.7312C382.051 86.6569 380.416 90.0127 380.416 93.7988L380.674 101.285C380.674 105.243 379.641 108.298 377.576 110.449C375.597 112.6 372.972 113.676 369.703 113.676C366.519 113.676 363.894 112.557 361.829 110.32C359.85 108.083 358.861 105.028 358.861 101.156C358.861 93.7558 362.647 86.958 370.219 80.7626C377.791 74.5671 388.418 71.4694 402.1 71.4694C412.598 71.4694 421.202 73.2334 427.914 76.7614C432.991 79.4288 436.734 83.6022 439.143 89.2813C440.692 92.9814 441.467 100.554 441.467 111.998L441.467 152.139C441.467 163.412 441.682 170.338 442.112 172.92C442.542 175.415 443.231 177.093 444.177 177.954C445.21 178.814 446.371 179.244 447.662 179.244C449.039 179.244 450.243 178.943 451.276 178.341C453.083 177.222 456.568 174.081 461.731 168.919L461.731 176.147C452.093 189.054 442.886 195.507 434.109 195.507C429.893 195.507 426.537 194.045 424.042 191.119C421.546 188.193 420.256 183.203 420.17 176.147ZM420.17 167.757L420.17 122.711C407.177 127.874 398.787 131.531 395.001 133.682C388.203 137.468 383.341 141.426 380.416 145.557C377.49 149.687 376.027 154.204 376.027 159.109C376.027 165.305 377.877 170.467 381.577 174.598C385.277 178.642 389.537 180.664 394.355 180.664C400.895 180.664 409.5 176.362 420.17 167.757ZM544.621 148.267C541.437 163.842 535.198 175.845 525.905 184.278C516.612 192.625 506.329 196.798 495.057 196.798C481.634 196.798 469.931 191.162 459.95 179.89C449.968 168.617 444.977 153.387 444.977 134.198C444.977 115.612 450.484 100.511 461.498 88.8941C472.599 77.2776 485.893 71.4694 501.382 71.4694C512.998 71.4694 522.549 74.5671 530.036 80.7626C537.522 86.872 541.265 93.2395 541.265 99.8652C541.265 103.135 540.189 105.802 538.038 107.868C535.973 109.847 533.047 110.836 529.261 110.836C524.184 110.836 520.355 109.201 517.774 105.932C516.311 104.125 515.321 100.683 514.805 95.6058C514.375 90.529 512.654 86.6568 509.642 83.9894C506.631 81.4079 502.457 80.1172 497.122 80.1172C488.518 80.1172 481.591 83.301 476.342 89.6685C469.372 98.1012 465.887 109.244 465.887 123.098C465.887 137.21 469.329 149.687 476.213 160.529C483.183 171.285 492.562 176.663 504.35 176.663C512.783 176.663 520.355 173.78 527.067 168.015C531.8 164.057 536.403 156.872 540.878 146.46L544.621 148.267ZM528.513 74.9543L583.626 74.9543L583.626 79.73L580.916 79.73C577.044 79.73 574.118 80.5905 572.139 82.3114C570.246 83.9463 569.299 86.0115 569.299 88.5069C569.299 91.8627 570.719 96.5093 573.559 102.447L602.342 162.078L628.801 96.7675C630.264 93.2395 630.996 89.7546 630.996 86.3127C630.996 84.7638 630.694 83.6021 630.092 82.8277C629.404 81.8812 628.328 81.1498 626.865 80.6335C625.402 80.0312 622.821 79.73 619.121 79.73L619.121 74.9543L657.584 74.9543L657.584 79.73C654.401 80.0742 651.948 80.7626 650.227 81.7951C648.506 82.8277 646.613 84.7638 644.548 87.6034C643.774 88.808 642.311 92.1209 640.16 97.5419L592.016 215.513C587.369 226.958 581.26 235.606 573.688 241.457C566.202 247.308 558.973 250.234 552.004 250.234C546.927 250.234 542.753 248.771 539.484 245.845C536.214 242.92 534.579 239.564 534.579 235.778C534.579 232.164 535.741 229.238 538.064 227.001C540.473 224.85 543.743 223.774 547.873 223.774C550.713 223.774 554.585 224.721 559.49 226.614C562.932 227.904 565.083 228.55 565.943 228.55C568.525 228.55 571.321 227.216 574.333 224.548C577.431 221.881 580.528 216.718 583.626 209.06L592.016 188.537L549.551 99.3489C548.261 96.6814 546.195 93.3686 543.356 89.4104C541.205 86.3987 539.441 84.3766 538.064 83.344C536.085 81.9672 532.901 80.7626 528.513 79.73L528.513 74.9543Z" fill="#BBFF00"/>
</g>
<g filter="url(#filter1_f_269_247)">
<path d="M164.53 144.782L168.79 145.686L153.817 193.184L18.2919 193.184L18.2919 188.408L24.8746 188.408C32.2747 188.408 37.5667 185.999 40.7504 181.18C42.5574 178.427 43.4609 172.059 43.4609 162.078L43.4609 49.14C43.4609 38.2119 42.2563 31.3711 39.8469 28.6176C36.4911 24.8315 31.5003 22.9385 24.8746 22.9385L18.2919 22.9385L18.2919 18.1628L97.542 18.1628L97.542 22.9385C88.2488 22.8524 81.7092 23.7129 77.9231 25.5199C74.223 27.3269 71.6846 29.6072 70.3079 32.3607C68.9311 35.1142 68.2427 41.6969 68.2427 52.1087L68.2427 162.078C68.2427 169.22 68.9311 174.124 70.3079 176.792C71.3404 178.599 72.9323 179.933 75.0835 180.793C77.2347 181.654 83.9464 182.084 95.2187 182.084L107.997 182.084C121.42 182.084 130.843 181.094 136.264 179.115C141.685 177.136 146.632 173.651 151.107 168.66C155.581 163.584 160.056 155.624 164.53 144.782ZM176.302 119.484C176.216 137.038 180.475 150.806 189.08 160.787C197.684 170.769 207.795 175.759 219.412 175.759C227.156 175.759 233.868 173.651 239.547 169.435C245.312 165.132 250.131 157.818 254.003 147.493L258.004 150.074C256.197 161.863 250.948 172.619 242.257 182.342C233.566 191.979 222.681 196.798 209.602 196.798C195.404 196.798 183.228 191.291 173.075 180.277C163.007 169.177 157.973 154.29 157.973 135.618C157.973 115.397 163.136 99.6501 173.462 88.3778C183.874 77.0195 196.91 71.3403 212.571 71.3403C225.822 71.3403 236.707 75.7288 245.226 84.5057C253.745 93.1965 258.004 104.856 258.004 119.484L176.302 119.484ZM176.302 111.998L231.028 111.998C230.598 104.426 229.694 99.0908 228.317 95.9931C226.166 91.1744 222.939 87.3883 218.637 84.6347C214.421 81.8812 209.989 80.5044 205.343 80.5044C198.201 80.5044 191.79 83.301 186.111 88.8941C180.518 94.4012 177.248 102.102 176.302 111.998ZM279.068 150.074C271.84 146.546 266.29 141.641 262.418 135.36C258.546 128.992 256.61 121.979 256.61 114.321C256.61 102.619 260.998 92.5511 269.775 84.1184C278.638 75.6858 289.954 71.4694 303.721 71.4694C314.993 71.4694 324.76 74.2229 333.02 79.73L358.06 79.73C361.76 79.73 363.912 79.8591 364.514 80.1172C365.116 80.2893 365.547 80.6335 365.805 81.1498C366.321 81.9242 366.579 83.301 366.579 85.2801C366.579 87.5173 366.364 89.0662 365.934 89.9267C365.676 90.3569 365.202 90.7011 364.514 90.9592C363.912 91.2174 361.76 91.3465 358.06 91.3465L342.701 91.3465C347.52 97.5419 349.929 105.458 349.929 115.096C349.929 126.11 345.713 135.532 337.28 143.362C328.847 151.193 317.532 155.108 303.334 155.108C297.483 155.108 291.502 154.247 285.393 152.526C281.607 155.796 279.025 158.679 277.649 161.174C276.358 163.584 275.713 165.649 275.713 167.37C275.713 168.833 276.401 170.252 277.778 171.629C279.241 173.006 282.037 173.995 286.167 174.598C288.577 174.942 294.6 175.243 304.237 175.501C321.963 175.931 333.451 176.534 338.7 177.308C346.702 178.427 353.07 181.396 357.802 186.214C362.621 191.033 365.03 196.97 365.03 204.026C365.03 213.749 360.47 222.871 351.349 231.389C337.925 243.952 320.414 250.234 298.816 250.234C282.209 250.234 268.183 246.491 256.739 239.005C250.285 234.702 247.059 230.228 247.059 225.581C247.059 223.516 247.532 221.451 248.478 219.386C249.941 216.202 252.953 211.77 257.514 206.091C258.116 205.317 262.504 200.67 270.679 192.151C266.204 189.484 263.021 187.118 261.128 185.053C259.321 182.901 258.417 180.492 258.417 177.825C258.417 174.813 259.622 171.285 262.031 167.241C264.526 163.196 270.206 157.474 279.068 150.074ZM301.527 77.6649C295.159 77.6649 289.824 80.2033 285.522 85.2801C281.22 90.3569 279.068 98.1442 279.068 108.642C279.068 122.238 281.994 132.778 287.845 140.265C292.32 145.944 297.999 148.783 304.883 148.783C311.422 148.783 316.8 146.331 321.017 141.426C325.233 136.522 327.341 128.82 327.341 118.322C327.341 104.641 324.373 93.9279 318.435 86.1836C314.047 80.5044 308.411 77.6649 301.527 77.6649ZM277.778 193.184C273.734 197.573 270.679 201.66 268.614 205.446C266.549 209.232 265.516 212.717 265.516 215.901C265.516 220.031 268.011 223.645 273.002 226.743C281.607 232.078 294.041 234.745 310.304 234.745C325.792 234.745 337.194 231.992 344.508 226.485C351.908 221.064 355.608 215.255 355.608 209.06C355.608 204.585 353.414 201.402 349.025 199.509C344.551 197.616 335.688 196.497 322.437 196.153C303.076 195.636 288.19 194.647 277.778 193.184ZM420.17 176.147C408.037 185.526 400.422 190.947 397.324 192.41C392.677 194.561 387.73 195.636 382.481 195.636C374.306 195.636 367.551 192.84 362.217 187.247C356.968 181.654 354.343 174.297 354.343 165.175C354.343 159.41 355.634 154.42 358.215 150.203C361.743 144.352 367.853 138.845 376.543 133.682C385.32 128.519 399.862 122.238 420.17 114.838L420.17 110.191C420.17 98.4024 418.277 90.3139 414.491 85.9254C410.791 81.537 405.37 79.3428 398.228 79.3428C392.807 79.3428 388.504 80.8056 385.32 83.7312C382.051 86.6569 380.416 90.0127 380.416 93.7988L380.674 101.285C380.674 105.243 379.641 108.298 377.576 110.449C375.597 112.6 372.972 113.676 369.703 113.676C366.519 113.676 363.894 112.557 361.829 110.32C359.85 108.083 358.861 105.028 358.861 101.156C358.861 93.7558 362.647 86.958 370.219 80.7626C377.791 74.5671 388.418 71.4694 402.1 71.4694C412.598 71.4694 421.202 73.2334 427.914 76.7614C432.991 79.4288 436.734 83.6022 439.143 89.2813C440.692 92.9814 441.467 100.554 441.467 111.998L441.467 152.139C441.467 163.412 441.682 170.338 442.112 172.92C442.542 175.415 443.231 177.093 444.177 177.954C445.21 178.814 446.371 179.244 447.662 179.244C449.039 179.244 450.243 178.943 451.276 178.341C453.083 177.222 456.568 174.081 461.731 168.919L461.731 176.147C452.093 189.054 442.886 195.507 434.109 195.507C429.893 195.507 426.537 194.045 424.042 191.119C421.546 188.193 420.256 183.203 420.17 176.147ZM420.17 167.757L420.17 122.711C407.177 127.874 398.787 131.531 395.001 133.682C388.203 137.468 383.341 141.426 380.416 145.557C377.49 149.687 376.027 154.204 376.027 159.109C376.027 165.305 377.877 170.467 381.577 174.598C385.277 178.642 389.537 180.664 394.355 180.664C400.895 180.664 409.5 176.362 420.17 167.757ZM544.621 148.267C541.437 163.842 535.198 175.845 525.905 184.278C516.612 192.625 506.329 196.798 495.057 196.798C481.634 196.798 469.931 191.162 459.95 179.89C449.968 168.617 444.977 153.387 444.977 134.198C444.977 115.612 450.484 100.511 461.498 88.8941C472.599 77.2776 485.893 71.4694 501.382 71.4694C512.998 71.4694 522.549 74.5671 530.036 80.7626C537.522 86.872 541.265 93.2395 541.265 99.8652C541.265 103.135 540.189 105.802 538.038 107.868C535.973 109.847 533.047 110.836 529.261 110.836C524.184 110.836 520.355 109.201 517.774 105.932C516.311 104.125 515.321 100.683 514.805 95.6058C514.375 90.529 512.654 86.6568 509.642 83.9894C506.631 81.4079 502.457 80.1172 497.122 80.1172C488.518 80.1172 481.591 83.301 476.342 89.6685C469.372 98.1012 465.887 109.244 465.887 123.098C465.887 137.21 469.329 149.687 476.213 160.529C483.183 171.285 492.562 176.663 504.35 176.663C512.783 176.663 520.355 173.78 527.067 168.015C531.8 164.057 536.403 156.872 540.878 146.46L544.621 148.267ZM528.513 74.9543L583.626 74.9543L583.626 79.73L580.916 79.73C577.044 79.73 574.118 80.5905 572.139 82.3114C570.246 83.9463 569.299 86.0115 569.299 88.5069C569.299 91.8627 570.719 96.5093 573.559 102.447L602.342 162.078L628.801 96.7675C630.264 93.2395 630.996 89.7546 630.996 86.3127C630.996 84.7638 630.694 83.6021 630.092 82.8277C629.404 81.8812 628.328 81.1498 626.865 80.6335C625.402 80.0312 622.821 79.73 619.121 79.73L619.121 74.9543L657.584 74.9543L657.584 79.73C654.401 80.0742 651.948 80.7626 650.227 81.7951C648.506 82.8277 646.613 84.7638 644.548 87.6034C643.774 88.808 642.311 92.1209 640.16 97.5419L592.016 215.513C587.369 226.958 581.26 235.606 573.688 241.457C566.202 247.308 558.973 250.234 552.004 250.234C546.927 250.234 542.753 248.771 539.484 245.845C536.214 242.92 534.579 239.564 534.579 235.778C534.579 232.164 535.741 229.238 538.064 227.001C540.473 224.85 543.743 223.774 547.873 223.774C550.713 223.774 554.585 224.721 559.49 226.614C562.932 227.904 565.083 228.55 565.943 228.55C568.525 228.55 571.321 227.216 574.333 224.548C577.431 221.881 580.528 216.718 583.626 209.06L592.016 188.537L549.551 99.3489C548.261 96.6814 546.195 93.3686 543.356 89.4104C541.205 86.3987 539.441 84.3766 538.064 83.344C536.085 81.9672 532.901 80.7626 528.513 79.73L528.513 74.9543Z" fill="#BBFF00"/>
</g>
<g filter="url(#filter2_f_269_247)">
<path d="M164.53 144.782L168.79 145.686L153.817 193.184L18.2919 193.184L18.2919 188.408L24.8746 188.408C32.2747 188.408 37.5667 185.999 40.7504 181.18C42.5574 178.427 43.4609 172.059 43.4609 162.078L43.4609 49.14C43.4609 38.2119 42.2563 31.3711 39.8469 28.6176C36.4911 24.8315 31.5003 22.9385 24.8746 22.9385L18.2919 22.9385L18.2919 18.1628L97.542 18.1628L97.542 22.9385C88.2488 22.8524 81.7092 23.7129 77.9231 25.5199C74.223 27.3269 71.6846 29.6072 70.3079 32.3607C68.9311 35.1142 68.2427 41.6969 68.2427 52.1087L68.2427 162.078C68.2427 169.22 68.9311 174.124 70.3079 176.792C71.3404 178.599 72.9323 179.933 75.0835 180.793C77.2347 181.654 83.9464 182.084 95.2187 182.084L107.997 182.084C121.42 182.084 130.843 181.094 136.264 179.115C141.685 177.136 146.632 173.651 151.107 168.66C155.581 163.584 160.056 155.624 164.53 144.782ZM176.302 119.484C176.216 137.038 180.475 150.806 189.08 160.787C197.684 170.769 207.795 175.759 219.412 175.759C227.156 175.759 233.868 173.651 239.547 169.435C245.312 165.132 250.131 157.818 254.003 147.493L258.004 150.074C256.197 161.863 250.948 172.619 242.257 182.342C233.566 191.979 222.681 196.798 209.602 196.798C195.404 196.798 183.228 191.291 173.075 180.277C163.007 169.177 157.973 154.29 157.973 135.618C157.973 115.397 163.136 99.6501 173.462 88.3778C183.874 77.0195 196.91 71.3403 212.571 71.3403C225.822 71.3403 236.707 75.7288 245.226 84.5057C253.745 93.1965 258.004 104.856 258.004 119.484L176.302 119.484ZM176.302 111.998L231.028 111.998C230.598 104.426 229.694 99.0908 228.317 95.9931C226.166 91.1744 222.939 87.3883 218.637 84.6347C214.421 81.8812 209.989 80.5044 205.343 80.5044C198.201 80.5044 191.79 83.301 186.111 88.8941C180.518 94.4012 177.248 102.102 176.302 111.998ZM279.068 150.074C271.84 146.546 266.29 141.641 262.418 135.36C258.546 128.992 256.61 121.979 256.61 114.321C256.61 102.619 260.998 92.5511 269.775 84.1184C278.638 75.6858 289.954 71.4694 303.721 71.4694C314.993 71.4694 324.76 74.2229 333.02 79.73L358.06 79.73C361.76 79.73 363.912 79.8591 364.514 80.1172C365.116 80.2893 365.547 80.6335 365.805 81.1498C366.321 81.9242 366.579 83.301 366.579 85.2801C366.579 87.5173 366.364 89.0662 365.934 89.9267C365.676 90.3569 365.202 90.7011 364.514 90.9592C363.912 91.2174 361.76 91.3465 358.06 91.3465L342.701 91.3465C347.52 97.5419 349.929 105.458 349.929 115.096C349.929 126.11 345.713 135.532 337.28 143.362C328.847 151.193 317.532 155.108 303.334 155.108C297.483 155.108 291.502 154.247 285.393 152.526C281.607 155.796 279.025 158.679 277.649 161.174C276.358 163.584 275.713 165.649 275.713 167.37C275.713 168.833 276.401 170.252 277.778 171.629C279.241 173.006 282.037 173.995 286.167 174.598C288.577 174.942 294.6 175.243 304.237 175.501C321.963 175.931 333.451 176.534 338.7 177.308C346.702 178.427 353.07 181.396 357.802 186.214C362.621 191.033 365.03 196.97 365.03 204.026C365.03 213.749 360.47 222.871 351.349 231.389C337.925 243.952 320.414 250.234 298.816 250.234C282.209 250.234 268.183 246.491 256.739 239.005C250.285 234.702 247.059 230.228 247.059 225.581C247.059 223.516 247.532 221.451 248.478 219.386C249.941 216.202 252.953 211.77 257.514 206.091C258.116 205.317 262.504 200.67 270.679 192.151C266.204 189.484 263.021 187.118 261.128 185.053C259.321 182.901 258.417 180.492 258.417 177.825C258.417 174.813 259.622 171.285 262.031 167.241C264.526 163.196 270.206 157.474 279.068 150.074ZM301.527 77.6649C295.159 77.6649 289.824 80.2033 285.522 85.2801C281.22 90.3569 279.068 98.1442 279.068 108.642C279.068 122.238 281.994 132.778 287.845 140.265C292.32 145.944 297.999 148.783 304.883 148.783C311.422 148.783 316.8 146.331 321.017 141.426C325.233 136.522 327.341 128.82 327.341 118.322C327.341 104.641 324.373 93.9279 318.435 86.1836C314.047 80.5044 308.411 77.6649 301.527 77.6649ZM277.778 193.184C273.734 197.573 270.679 201.66 268.614 205.446C266.549 209.232 265.516 212.717 265.516 215.901C265.516 220.031 268.011 223.645 273.002 226.743C281.607 232.078 294.041 234.745 310.304 234.745C325.792 234.745 337.194 231.992 344.508 226.485C351.908 221.064 355.608 215.255 355.608 209.06C355.608 204.585 353.414 201.402 349.025 199.509C344.551 197.616 335.688 196.497 322.437 196.153C303.076 195.636 288.19 194.647 277.778 193.184ZM420.17 176.147C408.037 185.526 400.422 190.947 397.324 192.41C392.677 194.561 387.73 195.636 382.481 195.636C374.306 195.636 367.551 192.84 362.217 187.247C356.968 181.654 354.343 174.297 354.343 165.175C354.343 159.41 355.634 154.42 358.215 150.203C361.743 144.352 367.853 138.845 376.543 133.682C385.32 128.519 399.862 122.238 420.17 114.838L420.17 110.191C420.17 98.4024 418.277 90.3139 414.491 85.9254C410.791 81.537 405.37 79.3428 398.228 79.3428C392.807 79.3428 388.504 80.8056 385.32 83.7312C382.051 86.6569 380.416 90.0127 380.416 93.7988L380.674 101.285C380.674 105.243 379.641 108.298 377.576 110.449C375.597 112.6 372.972 113.676 369.703 113.676C366.519 113.676 363.894 112.557 361.829 110.32C359.85 108.083 358.861 105.028 358.861 101.156C358.861 93.7558 362.647 86.958 370.219 80.7626C377.791 74.5671 388.418 71.4694 402.1 71.4694C412.598 71.4694 421.202 73.2334 427.914 76.7614C432.991 79.4288 436.734 83.6022 439.143 89.2813C440.692 92.9814 441.467 100.554 441.467 111.998L441.467 152.139C441.467 163.412 441.682 170.338 442.112 172.92C442.542 175.415 443.231 177.093 444.177 177.954C445.21 178.814 446.371 179.244 447.662 179.244C449.039 179.244 450.243 178.943 451.276 178.341C453.083 177.222 456.568 174.081 461.731 168.919L461.731 176.147C452.093 189.054 442.886 195.507 434.109 195.507C429.893 195.507 426.537 194.045 424.042 191.119C421.546 188.193 420.256 183.203 420.17 176.147ZM420.17 167.757L420.17 122.711C407.177 127.874 398.787 131.531 395.001 133.682C388.203 137.468 383.341 141.426 380.416 145.557C377.49 149.687 376.027 154.204 376.027 159.109C376.027 165.305 377.877 170.467 381.577 174.598C385.277 178.642 389.537 180.664 394.355 180.664C400.895 180.664 409.5 176.362 420.17 167.757ZM544.621 148.267C541.437 163.842 535.198 175.845 525.905 184.278C516.612 192.625 506.329 196.798 495.057 196.798C481.634 196.798 469.931 191.162 459.95 179.89C449.968 168.617 444.977 153.387 444.977 134.198C444.977 115.612 450.484 100.511 461.498 88.8941C472.599 77.2776 485.893 71.4694 501.382 71.4694C512.998 71.4694 522.549 74.5671 530.036 80.7626C537.522 86.872 541.265 93.2395 541.265 99.8652C541.265 103.135 540.189 105.802 538.038 107.868C535.973 109.847 533.047 110.836 529.261 110.836C524.184 110.836 520.355 109.201 517.774 105.932C516.311 104.125 515.321 100.683 514.805 95.6058C514.375 90.529 512.654 86.6568 509.642 83.9894C506.631 81.4079 502.457 80.1172 497.122 80.1172C488.518 80.1172 481.591 83.301 476.342 89.6685C469.372 98.1012 465.887 109.244 465.887 123.098C465.887 137.21 469.329 149.687 476.213 160.529C483.183 171.285 492.562 176.663 504.35 176.663C512.783 176.663 520.355 173.78 527.067 168.015C531.8 164.057 536.403 156.872 540.878 146.46L544.621 148.267ZM528.513 74.9543L583.626 74.9543L583.626 79.73L580.916 79.73C577.044 79.73 574.118 80.5905 572.139 82.3114C570.246 83.9463 569.299 86.0115 569.299 88.5069C569.299 91.8627 570.719 96.5093 573.559 102.447L602.342 162.078L628.801 96.7675C630.264 93.2395 630.996 89.7546 630.996 86.3127C630.996 84.7638 630.694 83.6021 630.092 82.8277C629.404 81.8812 628.328 81.1498 626.865 80.6335C625.402 80.0312 622.821 79.73 619.121 79.73L619.121 74.9543L657.584 74.9543L657.584 79.73C654.401 80.0742 651.948 80.7626 650.227 81.7951C648.506 82.8277 646.613 84.7638 644.548 87.6034C643.774 88.808 642.311 92.1209 640.16 97.5419L592.016 215.513C587.369 226.958 581.26 235.606 573.688 241.457C566.202 247.308 558.973 250.234 552.004 250.234C546.927 250.234 542.753 248.771 539.484 245.845C536.214 242.92 534.579 239.564 534.579 235.778C534.579 232.164 535.741 229.238 538.064 227.001C540.473 224.85 543.743 223.774 547.873 223.774C550.713 223.774 554.585 224.721 559.49 226.614C562.932 227.904 565.083 228.55 565.943 228.55C568.525 228.55 571.321 227.216 574.333 224.548C577.431 221.881 580.528 216.718 583.626 209.06L592.016 188.537L549.551 99.3489C548.261 96.6814 546.195 93.3686 543.356 89.4104C541.205 86.3987 539.441 84.3766 538.064 83.344C536.085 81.9672 532.901 80.7626 528.513 79.73L528.513 74.9543Z" fill="#BBFF00"/>
</g>
<g filter="url(#filter3_f_269_247)">
<path d="M164.53 144.782L168.79 145.686L153.817 193.184L18.2919 193.184L18.2919 188.408L24.8746 188.408C32.2747 188.408 37.5667 185.999 40.7504 181.18C42.5574 178.427 43.4609 172.059 43.4609 162.078L43.4609 49.14C43.4609 38.2119 42.2563 31.3711 39.8469 28.6176C36.4911 24.8315 31.5003 22.9385 24.8746 22.9385L18.2919 22.9385L18.2919 18.1628L97.542 18.1628L97.542 22.9385C88.2488 22.8524 81.7092 23.7129 77.9231 25.5199C74.223 27.3269 71.6846 29.6072 70.3079 32.3607C68.9311 35.1142 68.2427 41.6969 68.2427 52.1087L68.2427 162.078C68.2427 169.22 68.9311 174.124 70.3079 176.792C71.3404 178.599 72.9323 179.933 75.0835 180.793C77.2347 181.654 83.9464 182.084 95.2187 182.084L107.997 182.084C121.42 182.084 130.843 181.094 136.264 179.115C141.685 177.136 146.632 173.651 151.107 168.66C155.581 163.584 160.056 155.624 164.53 144.782ZM176.302 119.484C176.216 137.038 180.475 150.806 189.08 160.787C197.684 170.769 207.795 175.759 219.412 175.759C227.156 175.759 233.868 173.651 239.547 169.435C245.312 165.132 250.131 157.818 254.003 147.493L258.004 150.074C256.197 161.863 250.948 172.619 242.257 182.342C233.566 191.979 222.681 196.798 209.602 196.798C195.404 196.798 183.228 191.291 173.075 180.277C163.007 169.177 157.973 154.29 157.973 135.618C157.973 115.397 163.136 99.6501 173.462 88.3778C183.874 77.0195 196.91 71.3403 212.571 71.3403C225.822 71.3403 236.707 75.7288 245.226 84.5057C253.745 93.1965 258.004 104.856 258.004 119.484L176.302 119.484ZM176.302 111.998L231.028 111.998C230.598 104.426 229.694 99.0908 228.317 95.9931C226.166 91.1744 222.939 87.3883 218.637 84.6347C214.421 81.8812 209.989 80.5044 205.343 80.5044C198.201 80.5044 191.79 83.301 186.111 88.8941C180.518 94.4012 177.248 102.102 176.302 111.998ZM279.068 150.074C271.84 146.546 266.29 141.641 262.418 135.36C258.546 128.992 256.61 121.979 256.61 114.321C256.61 102.619 260.998 92.5511 269.775 84.1184C278.638 75.6858 289.954 71.4694 303.721 71.4694C314.993 71.4694 324.76 74.2229 333.02 79.73L358.06 79.73C361.76 79.73 363.912 79.8591 364.514 80.1172C365.116 80.2893 365.547 80.6335 365.805 81.1498C366.321 81.9242 366.579 83.301 366.579 85.2801C366.579 87.5173 366.364 89.0662 365.934 89.9267C365.676 90.3569 365.202 90.7011 364.514 90.9592C363.912 91.2174 361.76 91.3465 358.06 91.3465L342.701 91.3465C347.52 97.5419 349.929 105.458 349.929 115.096C349.929 126.11 345.713 135.532 337.28 143.362C328.847 151.193 317.532 155.108 303.334 155.108C297.483 155.108 291.502 154.247 285.393 152.526C281.607 155.796 279.025 158.679 277.649 161.174C276.358 163.584 275.713 165.649 275.713 167.37C275.713 168.833 276.401 170.252 277.778 171.629C279.241 173.006 282.037 173.995 286.167 174.598C288.577 174.942 294.6 175.243 304.237 175.501C321.963 175.931 333.451 176.534 338.7 177.308C346.702 178.427 353.07 181.396 357.802 186.214C362.621 191.033 365.03 196.97 365.03 204.026C365.03 213.749 360.47 222.871 351.349 231.389C337.925 243.952 320.414 250.234 298.816 250.234C282.209 250.234 268.183 246.491 256.739 239.005C250.285 234.702 247.059 230.228 247.059 225.581C247.059 223.516 247.532 221.451 248.478 219.386C249.941 216.202 252.953 211.77 257.514 206.091C258.116 205.317 262.504 200.67 270.679 192.151C266.204 189.484 263.021 187.118 261.128 185.053C259.321 182.901 258.417 180.492 258.417 177.825C258.417 174.813 259.622 171.285 262.031 167.241C264.526 163.196 270.206 157.474 279.068 150.074ZM301.527 77.6649C295.159 77.6649 289.824 80.2033 285.522 85.2801C281.22 90.3569 279.068 98.1442 279.068 108.642C279.068 122.238 281.994 132.778 287.845 140.265C292.32 145.944 297.999 148.783 304.883 148.783C311.422 148.783 316.8 146.331 321.017 141.426C325.233 136.522 327.341 128.82 327.341 118.322C327.341 104.641 324.373 93.9279 318.435 86.1836C314.047 80.5044 308.411 77.6649 301.527 77.6649ZM277.778 193.184C273.734 197.573 270.679 201.66 268.614 205.446C266.549 209.232 265.516 212.717 265.516 215.901C265.516 220.031 268.011 223.645 273.002 226.743C281.607 232.078 294.041 234.745 310.304 234.745C325.792 234.745 337.194 231.992 344.508 226.485C351.908 221.064 355.608 215.255 355.608 209.06C355.608 204.585 353.414 201.402 349.025 199.509C344.551 197.616 335.688 196.497 322.437 196.153C303.076 195.636 288.19 194.647 277.778 193.184ZM420.17 176.147C408.037 185.526 400.422 190.947 397.324 192.41C392.677 194.561 387.73 195.636 382.481 195.636C374.306 195.636 367.551 192.84 362.217 187.247C356.968 181.654 354.343 174.297 354.343 165.175C354.343 159.41 355.634 154.42 358.215 150.203C361.743 144.352 367.853 138.845 376.543 133.682C385.32 128.519 399.862 122.238 420.17 114.838L420.17 110.191C420.17 98.4024 418.277 90.3139 414.491 85.9254C410.791 81.537 405.37 79.3428 398.228 79.3428C392.807 79.3428 388.504 80.8056 385.32 83.7312C382.051 86.6569 380.416 90.0127 380.416 93.7988L380.674 101.285C380.674 105.243 379.641 108.298 377.576 110.449C375.597 112.6 372.972 113.676 369.703 113.676C366.519 113.676 363.894 112.557 361.829 110.32C359.85 108.083 358.861 105.028 358.861 101.156C358.861 93.7558 362.647 86.958 370.219 80.7626C377.791 74.5671 388.418 71.4694 402.1 71.4694C412.598 71.4694 421.202 73.2334 427.914 76.7614C432.991 79.4288 436.734 83.6022 439.143 89.2813C440.692 92.9814 441.467 100.554 441.467 111.998L441.467 152.139C441.467 163.412 441.682 170.338 442.112 172.92C442.542 175.415 443.231 177.093 444.177 177.954C445.21 178.814 446.371 179.244 447.662 179.244C449.039 179.244 450.243 178.943 451.276 178.341C453.083 177.222 456.568 174.081 461.731 168.919L461.731 176.147C452.093 189.054 442.886 195.507 434.109 195.507C429.893 195.507 426.537 194.045 424.042 191.119C421.546 188.193 420.256 183.203 420.17 176.147ZM420.17 167.757L420.17 122.711C407.177 127.874 398.787 131.531 395.001 133.682C388.203 137.468 383.341 141.426 380.416 145.557C377.49 149.687 376.027 154.204 376.027 159.109C376.027 165.305 377.877 170.467 381.577 174.598C385.277 178.642 389.537 180.664 394.355 180.664C400.895 180.664 409.5 176.362 420.17 167.757ZM544.621 148.267C541.437 163.842 535.198 175.845 525.905 184.278C516.612 192.625 506.329 196.798 495.057 196.798C481.634 196.798 469.931 191.162 459.95 179.89C449.968 168.617 444.977 153.387 444.977 134.198C444.977 115.612 450.484 100.511 461.498 88.8941C472.599 77.2776 485.893 71.4694 501.382 71.4694C512.998 71.4694 522.549 74.5671 530.036 80.7626C537.522 86.872 541.265 93.2395 541.265 99.8652C541.265 103.135 540.189 105.802 538.038 107.868C535.973 109.847 533.047 110.836 529.261 110.836C524.184 110.836 520.355 109.201 517.774 105.932C516.311 104.125 515.321 100.683 514.805 95.6058C514.375 90.529 512.654 86.6568 509.642 83.9894C506.631 81.4079 502.457 80.1172 497.122 80.1172C488.518 80.1172 481.591 83.301 476.342 89.6685C469.372 98.1012 465.887 109.244 465.887 123.098C465.887 137.21 469.329 149.687 476.213 160.529C483.183 171.285 492.562 176.663 504.35 176.663C512.783 176.663 520.355 173.78 527.067 168.015C531.8 164.057 536.403 156.872 540.878 146.46L544.621 148.267ZM528.513 74.9543L583.626 74.9543L583.626 79.73L580.916 79.73C577.044 79.73 574.118 80.5905 572.139 82.3114C570.246 83.9463 569.299 86.0115 569.299 88.5069C569.299 91.8627 570.719 96.5093 573.559 102.447L602.342 162.078L628.801 96.7675C630.264 93.2395 630.996 89.7546 630.996 86.3127C630.996 84.7638 630.694 83.6021 630.092 82.8277C629.404 81.8812 628.328 81.1498 626.865 80.6335C625.402 80.0312 622.821 79.73 619.121 79.73L619.121 74.9543L657.584 74.9543L657.584 79.73C654.401 80.0742 651.948 80.7626 650.227 81.7951C648.506 82.8277 646.613 84.7638 644.548 87.6034C643.774 88.808 642.311 92.1209 640.16 97.5419L592.016 215.513C587.369 226.958 581.26 235.606 573.688 241.457C566.202 247.308 558.973 250.234 552.004 250.234C546.927 250.234 542.753 248.771 539.484 245.845C536.214 242.92 534.579 239.564 534.579 235.778C534.579 232.164 535.741 229.238 538.064 227.001C540.473 224.85 543.743 223.774 547.873 223.774C550.713 223.774 554.585 224.721 559.49 226.614C562.932 227.904 565.083 228.55 565.943 228.55C568.525 228.55 571.321 227.216 574.333 224.548C577.431 221.881 580.528 216.718 583.626 209.06L592.016 188.537L549.551 99.3489C548.261 96.6814 546.195 93.3686 543.356 89.4104C541.205 86.3987 539.441 84.3766 538.064 83.344C536.085 81.9672 532.901 80.7626 528.513 79.73L528.513 74.9543Z" fill="#BBFF00"/>
</g>
<path d="M164.53 144.782L168.79 145.686L153.817 193.184L18.2919 193.184L18.2919 188.408L24.8746 188.408C32.2747 188.408 37.5667 185.999 40.7504 181.18C42.5574 178.427 43.4609 172.059 43.4609 162.078L43.4609 49.14C43.4609 38.2119 42.2563 31.3711 39.8469 28.6176C36.4911 24.8315 31.5003 22.9385 24.8746 22.9385L18.2919 22.9385L18.2919 18.1628L97.542 18.1628L97.542 22.9385C88.2488 22.8524 81.7092 23.7129 77.9231 25.5199C74.223 27.3269 71.6846 29.6072 70.3079 32.3607C68.9311 35.1142 68.2427 41.6969 68.2427 52.1087L68.2427 162.078C68.2427 169.22 68.9311 174.124 70.3079 176.792C71.3404 178.599 72.9323 179.933 75.0835 180.793C77.2347 181.654 83.9464 182.084 95.2187 182.084L107.997 182.084C121.42 182.084 130.843 181.094 136.264 179.115C141.685 177.136 146.632 173.651 151.107 168.66C155.581 163.584 160.056 155.624 164.53 144.782ZM176.302 119.484C176.216 137.038 180.475 150.806 189.08 160.787C197.684 170.769 207.795 175.759 219.412 175.759C227.156 175.759 233.868 173.651 239.547 169.435C245.312 165.132 250.131 157.818 254.003 147.493L258.004 150.074C256.197 161.863 250.948 172.619 242.257 182.342C233.566 191.979 222.681 196.798 209.602 196.798C195.404 196.798 183.228 191.291 173.075 180.277C163.007 169.177 157.973 154.29 157.973 135.618C157.973 115.397 163.136 99.6501 173.462 88.3778C183.874 77.0195 196.91 71.3403 212.571 71.3403C225.822 71.3403 236.707 75.7288 245.226 84.5057C253.745 93.1965 258.004 104.856 258.004 119.484L176.302 119.484ZM176.302 111.998L231.028 111.998C230.598 104.426 229.694 99.0908 228.317 95.9931C226.166 91.1744 222.939 87.3883 218.637 84.6347C214.421 81.8812 209.989 80.5044 205.343 80.5044C198.201 80.5044 191.79 83.301 186.111 88.8941C180.518 94.4012 177.248 102.102 176.302 111.998ZM279.068 150.074C271.84 146.546 266.29 141.641 262.418 135.36C258.546 128.992 256.61 121.979 256.61 114.321C256.61 102.619 260.998 92.5511 269.775 84.1184C278.638 75.6858 289.954 71.4694 303.721 71.4694C314.993 71.4694 324.76 74.2229 333.02 79.73L358.06 79.73C361.76 79.73 363.912 79.8591 364.514 80.1172C365.116 80.2893 365.547 80.6335 365.805 81.1498C366.321 81.9242 366.579 83.301 366.579 85.2801C366.579 87.5173 366.364 89.0662 365.934 89.9267C365.676 90.3569 365.202 90.7011 364.514 90.9592C363.912 91.2174 361.76 91.3465 358.06 91.3465L342.701 91.3465C347.52 97.5419 349.929 105.458 349.929 115.096C349.929 126.11 345.713 135.532 337.28 143.362C328.847 151.193 317.532 155.108 303.334 155.108C297.483 155.108 291.502 154.247 285.393 152.526C281.607 155.796 279.025 158.679 277.649 161.174C276.358 163.584 275.713 165.649 275.713 167.37C275.713 168.833 276.401 170.252 277.778 171.629C279.241 173.006 282.037 173.995 286.167 174.598C288.577 174.942 294.6 175.243 304.237 175.501C321.963 175.931 333.451 176.534 338.7 177.308C346.702 178.427 353.07 181.396 357.802 186.214C362.621 191.033 365.03 196.97 365.03 204.026C365.03 213.749 360.47 222.871 351.349 231.389C337.925 243.952 320.414 250.234 298.816 250.234C282.209 250.234 268.183 246.491 256.739 239.005C250.285 234.702 247.059 230.228 247.059 225.581C247.059 223.516 247.532 221.451 248.478 219.386C249.941 216.202 252.953 211.77 257.514 206.091C258.116 205.317 262.504 200.67 270.679 192.151C266.204 189.484 263.021 187.118 261.128 185.053C259.321 182.901 258.417 180.492 258.417 177.825C258.417 174.813 259.622 171.285 262.031 167.241C264.526 163.196 270.206 157.474 279.068 150.074ZM301.527 77.6649C295.159 77.6649 289.824 80.2033 285.522 85.2801C281.22 90.3569 279.068 98.1442 279.068 108.642C279.068 122.238 281.994 132.778 287.845 140.265C292.32 145.944 297.999 148.783 304.883 148.783C311.422 148.783 316.8 146.331 321.017 141.426C325.233 136.522 327.341 128.82 327.341 118.322C327.341 104.641 324.373 93.9279 318.435 86.1836C314.047 80.5044 308.411 77.6649 301.527 77.6649ZM277.778 193.184C273.734 197.573 270.679 201.66 268.614 205.446C266.549 209.232 265.516 212.717 265.516 215.901C265.516 220.031 268.011 223.645 273.002 226.743C281.607 232.078 294.041 234.745 310.304 234.745C325.792 234.745 337.194 231.992 344.508 226.485C351.908 221.064 355.608 215.255 355.608 209.06C355.608 204.585 353.414 201.402 349.025 199.509C344.551 197.616 335.688 196.497 322.437 196.153C303.076 195.636 288.19 194.647 277.778 193.184ZM420.17 176.147C408.037 185.526 400.422 190.947 397.324 192.41C392.677 194.561 387.73 195.636 382.481 195.636C374.306 195.636 367.551 192.84 362.217 187.247C356.968 181.654 354.343 174.297 354.343 165.175C354.343 159.41 355.634 154.42 358.215 150.203C361.743 144.352 367.853 138.845 376.543 133.682C385.32 128.519 399.862 122.238 420.17 114.838L420.17 110.191C420.17 98.4024 418.277 90.3139 414.491 85.9254C410.791 81.537 405.37 79.3428 398.228 79.3428C392.807 79.3428 388.504 80.8056 385.32 83.7312C382.051 86.6569 380.416 90.0127 380.416 93.7988L380.674 101.285C380.674 105.243 379.641 108.298 377.576 110.449C375.597 112.6 372.972 113.676 369.703 113.676C366.519 113.676 363.894 112.557 361.829 110.32C359.85 108.083 358.861 105.028 358.861 101.156C358.861 93.7558 362.647 86.958 370.219 80.7626C377.791 74.5671 388.418 71.4694 402.1 71.4694C412.598 71.4694 421.202 73.2334 427.914 76.7614C432.991 79.4288 436.734 83.6022 439.143 89.2813C440.692 92.9814 441.467 100.554 441.467 111.998L441.467 152.139C441.467 163.412 441.682 170.338 442.112 172.92C442.542 175.415 443.231 177.093 444.177 177.954C445.21 178.814 446.371 179.244 447.662 179.244C449.039 179.244 450.243 178.943 451.276 178.341C453.083 177.222 456.568 174.081 461.731 168.919L461.731 176.147C452.093 189.054 442.886 195.507 434.109 195.507C429.893 195.507 426.537 194.045 424.042 191.119C421.546 188.193 420.256 183.203 420.17 176.147ZM420.17 167.757L420.17 122.711C407.177 127.874 398.787 131.531 395.001 133.682C388.203 137.468 383.341 141.426 380.416 145.557C377.49 149.687 376.027 154.204 376.027 159.109C376.027 165.305 377.877 170.467 381.577 174.598C385.277 178.642 389.537 180.664 394.355 180.664C400.895 180.664 409.5 176.362 420.17 167.757ZM544.621 148.267C541.437 163.842 535.198 175.845 525.905 184.278C516.612 192.625 506.329 196.798 495.057 196.798C481.634 196.798 469.931 191.162 459.95 179.89C449.968 168.617 444.977 153.387 444.977 134.198C444.977 115.612 450.484 100.511 461.498 88.8941C472.599 77.2776 485.893 71.4694 501.382 71.4694C512.998 71.4694 522.549 74.5671 530.036 80.7626C537.522 86.872 541.265 93.2395 541.265 99.8652C541.265 103.135 540.189 105.802 538.038 107.868C535.973 109.847 533.047 110.836 529.261 110.836C524.184 110.836 520.355 109.201 517.774 105.932C516.311 104.125 515.321 100.683 514.805 95.6058C514.375 90.529 512.654 86.6568 509.642 83.9894C506.631 81.4079 502.457 80.1172 497.122 80.1172C488.518 80.1172 481.591 83.301 476.342 89.6685C469.372 98.1012 465.887 109.244 465.887 123.098C465.887 137.21 469.329 149.687 476.213 160.529C483.183 171.285 492.562 176.663 504.35 176.663C512.783 176.663 520.355 173.78 527.067 168.015C531.8 164.057 536.403 156.872 540.878 146.46L544.621 148.267ZM528.513 74.9543L583.626 74.9543L583.626 79.73L580.916 79.73C577.044 79.73 574.118 80.5905 572.139 82.3114C570.246 83.9463 569.299 86.0115 569.299 88.5069C569.299 91.8627 570.719 96.5093 573.559 102.447L602.342 162.078L628.801 96.7675C630.264 93.2395 630.996 89.7546 630.996 86.3127C630.996 84.7638 630.694 83.6021 630.092 82.8277C629.404 81.8812 628.328 81.1498 626.865 80.6335C625.402 80.0312 622.821 79.73 619.121 79.73L619.121 74.9543L657.584 74.9543L657.584 79.73C654.401 80.0742 651.948 80.7626 650.227 81.7951C648.506 82.8277 646.613 84.7638 644.548 87.6034C643.774 88.808 642.311 92.1209 640.16 97.5419L592.016 215.513C587.369 226.958 581.26 235.606 573.688 241.457C566.202 247.308 558.973 250.234 552.004 250.234C546.927 250.234 542.753 248.771 539.484 245.845C536.214 242.92 534.579 239.564 534.579 235.778C534.579 232.164 535.741 229.238 538.064 227.001C540.473 224.85 543.743 223.774 547.873 223.774C550.713 223.774 554.585 224.721 559.49 226.614C562.932 227.904 565.083 228.55 565.943 228.55C568.525 228.55 571.321 227.216 574.333 224.548C577.431 221.881 580.528 216.718 583.626 209.06L592.016 188.537L549.551 99.3489C548.261 96.6814 546.195 93.3686 543.356 89.4104C541.205 86.3987 539.441 84.3766 538.064 83.344C536.085 81.9672 532.901 80.7626 528.513 79.73L528.513 74.9543Z" fill="#BBFF00"/>
<g filter="url(#filter4_f_269_247)">
<path d="M136.788 9.34136C133.09 14.6822 130.189 20.4081 128.083 26.5192C126.029 32.579 125.002 38.8698 125.002 45.3918C125.002 51.811 126.08 58.0248 128.237 64.0332C130.394 70.0416 133.244 75.6905 136.788 80.98H132.859C130.754 78.0528 128.879 75.2027 127.236 72.4296C125.593 69.7078 124.206 66.9347 123.076 64.1102C121.946 61.2344 121.099 58.2559 120.534 55.1747C119.969 52.0421 119.687 48.6527 119.687 45.0066C119.687 41.4632 119.969 38.1509 120.534 35.0696C121.15 31.937 122.023 28.9328 123.153 26.057C124.283 23.1812 125.644 20.3824 127.236 17.6607C128.879 14.8876 130.754 12.1145 132.859 9.34136H136.788ZM152.758 38.613C152.758 34.5561 153.298 30.7559 154.376 27.2125C155.506 23.6691 157.149 20.5879 159.306 17.9688C161.463 15.2984 164.133 13.1929 167.317 11.6523C170.501 10.1117 174.173 9.34136 178.333 9.34136C182.646 9.34136 186.421 10.1117 189.656 11.6523C192.943 13.1415 195.664 15.2214 197.821 17.8918C200.03 20.5108 201.673 23.6177 202.751 27.2125C203.881 30.7559 204.446 34.5561 204.446 38.613C204.446 42.6186 203.881 46.3932 202.751 49.9366C201.673 53.4286 200.055 56.5099 197.898 59.1803C195.742 61.7993 193.045 63.8791 189.81 65.4198C186.575 66.9604 182.826 67.7307 178.564 67.7307C174.301 67.7307 170.552 66.9604 167.317 65.4198C164.082 63.8791 161.386 61.7993 159.229 59.1803C157.072 56.5099 155.454 53.4286 154.376 49.9366C153.298 46.3932 152.758 42.6186 152.758 38.613ZM178.641 63.2629C182.235 63.2629 185.317 62.5953 187.884 61.2601C190.503 59.8735 192.635 58.0505 194.278 55.7909C195.973 53.5313 197.205 50.9123 197.975 47.9338C198.797 44.9552 199.208 41.8483 199.208 38.613C199.208 34.7615 198.72 31.3208 197.744 28.2909C196.82 25.2097 195.459 22.5906 193.662 20.4338C191.864 18.2769 189.682 16.6336 187.114 15.5038C184.546 14.374 181.671 13.8091 178.487 13.8091C174.943 13.8091 171.862 14.5024 169.243 15.889C166.675 17.2755 164.544 19.1243 162.849 21.4352C161.206 23.6948 159.974 26.3138 159.152 29.2923C158.382 32.2708 157.996 35.3778 157.996 38.613C157.996 41.8997 158.382 45.0323 159.152 48.0108C159.974 50.9893 161.206 53.6084 162.849 55.8679C164.544 58.1275 166.675 59.9249 169.243 61.2601C171.862 62.5953 174.995 63.2629 178.641 63.2629ZM211.866 66.2671H207.244V26.3652H211.866V31.9114C213.714 29.9599 215.614 28.368 217.566 27.1355C219.569 25.903 221.957 25.2867 224.73 25.2867C227.195 25.2867 229.48 25.7232 231.585 26.5962C233.691 27.4179 235.463 28.8815 236.901 30.987C237.876 32.4249 238.441 33.9142 238.595 35.4548C238.801 36.944 238.903 38.5103 238.903 40.1537V66.2671H234.282V40.2307C234.282 36.6359 233.486 33.9398 231.894 32.1425C230.302 30.3451 227.657 29.4464 223.959 29.4464C222.522 29.4464 221.212 29.6775 220.031 30.1397C218.85 30.5505 217.771 31.1154 216.796 31.8343C215.871 32.5533 215.075 33.375 214.408 34.2993C213.74 35.2237 213.226 36.1994 212.867 37.2265C212.405 38.5103 212.122 39.7428 212.02 40.924C211.917 42.1051 211.866 43.389 211.866 44.7755V66.2671ZM271.64 66.4212C271.075 66.5239 270.331 66.7036 269.406 66.9604C268.482 67.2171 267.455 67.3455 266.325 67.3455C264.014 67.3455 262.243 66.7806 261.01 65.6508C259.829 64.4697 259.238 62.3899 259.238 59.4114V30.2167H253.615V26.3652H259.238V15.2727H263.86V26.3652H271.332V30.2167H263.86V57.5626C263.86 58.5383 263.886 59.3857 263.937 60.1046C263.989 60.8236 264.143 61.4142 264.399 61.8763C264.656 62.3385 265.041 62.6723 265.555 62.8777C266.12 63.0832 266.89 63.1859 267.866 63.1859C268.482 63.1859 269.098 63.1345 269.715 63.0318C270.382 62.9291 271.024 62.8007 271.64 62.6466V66.4212ZM272.127 66.2671V10.8049H276.749V31.9114C278.598 29.9599 280.498 28.368 282.449 27.1355C284.452 25.903 286.84 25.2867 289.613 25.2867C292.078 25.2867 294.363 25.7232 296.469 26.5962C298.574 27.4179 300.346 28.8815 301.784 30.987C302.76 32.4249 303.325 33.9142 303.479 35.4548C303.684 36.944 303.787 38.5103 303.787 40.1537V66.2671H299.165V40.2307C299.165 36.6359 298.369 33.9398 296.777 32.1425C295.185 30.3451 292.54 29.4464 288.843 29.4464C287.405 29.4464 286.095 29.6775 284.914 30.1397C283.733 30.5505 282.655 31.1154 281.679 31.8343C280.755 32.5533 279.959 33.375 279.291 34.2993C278.623 35.2237 278.11 36.1994 277.75 37.2265C277.288 38.5103 277.006 39.7428 276.903 40.924C276.8 42.1051 276.749 43.389 276.749 44.7755V66.2671H272.127ZM336.884 43.543C336.884 41.5916 336.602 39.7685 336.037 38.0738C335.523 36.3278 334.727 34.8385 333.649 33.606C332.622 32.3222 331.312 31.3208 329.72 30.6018C328.128 29.8315 326.305 29.4464 324.251 29.4464C322.197 29.4464 320.374 29.8315 318.782 30.6018C317.241 31.3722 315.906 32.3992 314.776 33.6831C313.698 34.9669 312.825 36.4562 312.157 38.1509C311.49 39.8455 311.053 41.6429 310.848 43.543H336.884ZM310.848 47.3946C310.848 49.5514 311.13 51.6056 311.695 53.557C312.26 55.4571 313.082 57.1261 314.16 58.564C315.29 59.9506 316.702 61.0804 318.397 61.9534C320.091 62.775 322.043 63.1859 324.251 63.1859C327.281 63.1859 329.874 62.3899 332.031 60.7979C334.188 59.2059 335.626 56.9464 336.345 54.0192H341.506C340.941 55.9193 340.196 57.691 339.272 59.3343C338.348 60.9263 337.192 62.3385 335.806 63.571C334.419 64.7522 332.776 65.6765 330.876 66.3441C328.976 67.0117 326.767 67.3455 324.251 67.3455C321.067 67.3455 318.32 66.8063 316.009 65.7279C313.698 64.6494 311.798 63.1859 310.309 61.3371C308.819 59.437 307.715 57.2288 306.996 54.7125C306.277 52.1448 305.918 49.3974 305.918 46.4702C305.918 43.543 306.329 40.7956 307.15 38.2279C308.023 35.6602 309.23 33.4263 310.771 31.5262C312.363 29.5748 314.288 28.0598 316.548 26.9814C318.808 25.8516 321.375 25.2867 324.251 25.2867C329.746 25.2867 334.06 27.1868 337.192 30.987C340.325 34.7358 341.865 40.205 341.814 47.3946H310.848ZM354.061 10.8049H394.425V15.2727H376.862V66.2671H371.624V15.2727H354.061V10.8049ZM394.245 66.2671V10.8049H398.867V31.9114C400.716 29.9599 402.616 28.368 404.567 27.1355C406.57 25.903 408.958 25.2867 411.731 25.2867C414.196 25.2867 416.481 25.7232 418.587 26.5962C420.692 27.4179 422.464 28.8815 423.902 30.987C424.878 32.4249 425.442 33.9142 425.596 35.4548C425.802 36.944 425.905 38.5103 425.905 40.1537V66.2671H421.283V40.2307C421.283 36.6359 420.487 33.9398 418.895 32.1425C417.303 30.3451 414.658 29.4464 410.961 29.4464C409.523 29.4464 408.213 29.6775 407.032 30.1397C405.851 30.5505 404.773 31.1154 403.797 31.8343C402.872 32.5533 402.076 33.375 401.409 34.2993C400.741 35.2237 400.228 36.1994 399.868 37.2265C399.406 38.5103 399.124 39.7428 399.021 40.924C398.918 42.1051 398.867 43.389 398.867 44.7755V66.2671H394.245ZM459.002 43.543C459.002 41.5916 458.72 39.7685 458.155 38.0738C457.641 36.3278 456.845 34.8385 455.767 33.606C454.74 32.3222 453.43 31.3208 451.838 30.6018C450.246 29.8315 448.423 29.4464 446.369 29.4464C444.315 29.4464 442.492 29.8315 440.9 30.6018C439.359 31.3722 438.024 32.3992 436.894 33.6831C435.816 34.9669 434.943 36.4562 434.275 38.1509C433.607 39.8455 433.171 41.6429 432.966 43.543H459.002ZM432.966 47.3946C432.966 49.5514 433.248 51.6056 433.813 53.557C434.378 55.4571 435.199 57.1261 436.278 58.564C437.408 59.9506 438.82 61.0804 440.515 61.9534C442.209 62.775 444.161 63.1859 446.369 63.1859C449.399 63.1859 451.992 62.3899 454.149 60.7979C456.306 59.2059 457.744 56.9464 458.463 54.0192H463.624C463.059 55.9193 462.314 57.691 461.39 59.3343C460.466 60.9263 459.31 62.3385 457.924 63.571C456.537 64.7522 454.894 65.6765 452.994 66.3441C451.093 67.0117 448.885 67.3455 446.369 67.3455C443.185 67.3455 440.438 66.8063 438.127 65.7279C435.816 64.6494 433.916 63.1859 432.426 61.3371C430.937 59.437 429.833 57.2288 429.114 54.7125C428.395 52.1448 428.036 49.3974 428.036 46.4702C428.036 43.543 428.446 40.7956 429.268 38.2279C430.141 35.6602 431.348 33.4263 432.889 31.5262C434.481 29.5748 436.406 28.0598 438.666 26.9814C440.925 25.8516 443.493 25.2867 446.369 25.2867C451.864 25.2867 456.178 27.1868 459.31 30.987C462.443 34.7358 463.983 40.205 463.932 47.3946H432.966ZM469.991 66.2671H465.37V26.3652H469.991V32.3736H470.146C471.327 30.0626 473.021 28.3166 475.23 27.1355C477.438 25.903 479.851 25.2867 482.47 25.2867C484.319 25.2867 485.885 25.4921 487.169 25.903C488.453 26.3138 489.532 26.8787 490.405 27.5976C491.329 28.2652 492.074 29.0612 492.639 29.9856C493.255 30.91 493.768 31.9114 494.179 32.9898C495.514 30.3708 497.286 28.445 499.494 27.2125C501.754 25.9287 504.322 25.2867 507.197 25.2867C509.919 25.2867 512.076 25.7489 513.668 26.6733C515.311 27.5463 516.569 28.7274 517.442 30.2167C518.315 31.6546 518.88 33.3236 519.137 35.2237C519.445 37.1238 519.599 39.0752 519.599 41.078V66.2671H514.977V38.6901C514.977 35.8143 514.361 33.5547 513.129 31.9114C511.948 30.268 509.714 29.4464 506.427 29.4464C504.732 29.4464 503.089 29.8315 501.497 30.6018C499.956 31.3208 498.596 32.4506 497.414 33.9912C496.901 34.6588 496.464 35.4548 496.105 36.3792C495.797 37.2522 495.54 38.1765 495.335 39.1523C495.129 40.128 494.975 41.1037 494.872 42.0794C494.821 43.0552 494.795 43.9538 494.795 44.7755V66.2671H490.174V38.6901C490.174 35.8143 489.557 33.5547 488.325 31.9114C487.144 30.268 484.91 29.4464 481.623 29.4464C479.928 29.4464 478.285 29.8315 476.693 30.6018C475.153 31.3208 473.792 32.4506 472.611 33.9912C472.097 34.6588 471.66 35.4548 471.301 36.3792C470.993 37.2522 470.736 38.1765 470.531 39.1523C470.325 40.128 470.171 41.1037 470.069 42.0794C470.017 43.0552 469.991 43.9538 469.991 44.7755V66.2671ZM552.107 43.543C552.107 41.5916 551.824 39.7685 551.26 38.0738C550.746 36.3278 549.95 34.8385 548.872 33.606C547.844 32.3222 546.535 31.3208 544.943 30.6018C543.351 29.8315 541.528 29.4464 539.474 29.4464C537.42 29.4464 535.597 29.8315 534.005 30.6018C532.464 31.3722 531.129 32.3992 529.999 33.6831C528.921 34.9669 528.048 36.4562 527.38 38.1509C526.712 39.8455 526.276 41.6429 526.07 43.543H552.107ZM526.07 47.3946C526.07 49.5514 526.353 51.6056 526.918 53.557C527.483 55.4571 528.304 57.1261 529.383 58.564C530.513 59.9506 531.925 61.0804 533.619 61.9534C535.314 62.775 537.266 63.1859 539.474 63.1859C542.504 63.1859 545.097 62.3899 547.254 60.7979C549.411 59.2059 550.849 56.9464 551.568 54.0192H556.729C556.164 55.9193 555.419 57.691 554.495 59.3343C553.57 60.9263 552.415 62.3385 551.028 63.571C549.642 64.7522 547.999 65.6765 546.098 66.3441C544.198 67.0117 541.99 67.3455 539.474 67.3455C536.29 67.3455 533.542 66.8063 531.232 65.7279C528.921 64.6494 527.021 63.1859 525.531 61.3371C524.042 59.437 522.938 57.2288 522.219 54.7125C521.5 52.1448 521.14 49.3974 521.14 46.4702C521.14 43.543 521.551 40.7956 522.373 38.2279C523.246 35.6602 524.453 33.4263 525.993 31.5262C527.585 29.5748 529.511 28.0598 531.771 26.9814C534.03 25.8516 536.598 25.2867 539.474 25.2867C544.969 25.2867 549.282 27.1868 552.415 30.987C555.548 34.7358 557.088 40.205 557.037 47.3946H526.07ZM589.466 67.3455C586.898 67.2942 584.484 66.832 582.225 65.959C580.016 65.086 578.065 63.7764 576.37 62.0304C574.727 60.2844 573.418 58.1018 572.442 55.4828C571.466 52.8637 570.978 49.8082 570.978 46.3161C570.978 43.389 571.363 40.6672 572.134 38.1509C572.904 35.5832 574.059 33.3493 575.6 31.4492C577.141 29.5491 579.066 28.0598 581.377 26.9814C583.688 25.8516 586.384 25.2867 589.466 25.2867C592.598 25.2867 595.32 25.8516 597.631 26.9814C599.942 28.0598 601.868 29.5491 603.408 31.4492C604.949 33.2979 606.079 35.5061 606.797 38.0738C607.568 40.6415 607.953 43.389 607.953 46.3161C607.953 49.5001 607.516 52.3759 606.643 54.9436C605.77 57.5113 604.512 59.7195 602.869 61.5682C601.277 63.417 599.326 64.8549 597.015 65.8819C594.755 66.8577 592.239 67.3455 589.466 67.3455ZM603.023 46.3161C603.023 43.9538 602.766 41.7456 602.253 39.6915C601.739 37.6373 600.943 35.8656 599.865 34.3764C598.786 32.8357 597.4 31.6289 595.705 30.7559C594.01 29.8829 591.931 29.4464 589.466 29.4464C587.052 29.4464 584.972 29.9342 583.226 30.91C581.531 31.8343 580.145 33.0925 579.066 34.6845C577.988 36.2251 577.192 38.0225 576.678 40.0766C576.165 42.0794 575.908 44.1593 575.908 46.3161C575.908 48.7811 576.191 51.0664 576.756 53.1719C577.372 55.226 578.245 56.9977 579.375 58.487C580.504 59.9762 581.917 61.1317 583.611 61.9534C585.306 62.775 587.257 63.1859 589.466 63.1859C591.879 63.1859 593.933 62.7237 595.628 61.7993C597.374 60.8236 598.786 59.5397 599.865 57.9478C600.943 56.3558 601.739 54.5584 602.253 52.5556C602.766 50.5528 603.023 48.473 603.023 46.3161ZM605.462 30.2167V26.3652H611.393V20.0486C611.393 16.8647 612.035 14.3484 613.319 12.4996C614.603 10.6509 616.786 9.72651 619.867 9.72651C620.586 9.72651 621.253 9.75219 621.87 9.80354C622.486 9.8549 623.102 9.93193 623.718 10.0346V14.2713C622.691 14.0146 621.767 13.8862 620.945 13.8862C619.764 13.8862 618.84 14.1173 618.172 14.5795C617.505 14.9903 617.017 15.5552 616.709 16.2741C616.4 16.9931 616.195 17.8147 616.092 18.7391C616.041 19.6121 616.015 20.5108 616.015 21.4352V26.3652H623.718V30.2167H616.015V66.2671H611.393V30.2167H605.462ZM637.248 80.98C640.946 75.6392 643.821 69.9389 645.876 63.8791C647.981 57.768 649.034 51.4515 649.034 44.9296C649.034 38.5103 647.955 32.2965 645.799 26.2881C643.642 20.2797 640.792 14.6308 637.248 9.34136H641.177C643.282 12.2685 645.157 15.1187 646.8 17.8918C648.443 20.6135 649.804 23.4123 650.883 26.2881C652.012 29.1126 652.86 32.0911 653.425 35.2237C654.041 38.3049 654.349 41.6686 654.349 45.3147C654.349 48.8581 654.041 52.1961 653.425 55.3287C652.86 58.41 652.012 61.3885 650.883 64.2643C649.753 67.1401 648.366 69.9389 646.723 72.6606C645.08 75.4338 643.231 78.2069 641.177 80.98H637.248Z" fill="#BBFF00"/>
</g>
<defs>
<filter id="filter0_f_269_247" x="13.5028" y="13.3736" width="648.871" height="241.65" filterUnits="userSpaceOnUse" color-interpolation-filters="sRGB">
<feFlood flood-opacity="0" result="BackgroundImageFix"/>
<feBlend mode="normal" in="SourceGraphic" in2="BackgroundImageFix" result="shape"/>
<feGaussianBlur stdDeviation="2.39462" result="effect1_foregroundBlur_269_247"/>
</filter>
<filter id="filter1_f_269_247" x="13.5028" y="13.3736" width="648.871" height="241.65" filterUnits="userSpaceOnUse" color-interpolation-filters="sRGB">
<feFlood flood-opacity="0" result="BackgroundImageFix"/>
<feBlend mode="normal" in="SourceGraphic" in2="BackgroundImageFix" result="shape"/>
<feGaussianBlur stdDeviation="2.39462" result="effect1_foregroundBlur_269_247"/>
</filter>
<filter id="filter2_f_269_247" x="13.5028" y="13.3736" width="648.871" height="241.65" filterUnits="userSpaceOnUse" color-interpolation-filters="sRGB">
<feFlood flood-opacity="0" result="BackgroundImageFix"/>
<feBlend mode="normal" in="SourceGraphic" in2="BackgroundImageFix" result="shape"/>
<feGaussianBlur stdDeviation="2.39462" result="effect1_foregroundBlur_269_247"/>
</filter>
<filter id="filter3_f_269_247" x="0.291609" y="0.162458" width="675.293" height="268.072" filterUnits="userSpaceOnUse" color-interpolation-filters="sRGB">
<feFlood flood-opacity="0" result="BackgroundImageFix"/>
<feBlend mode="normal" in="SourceGraphic" in2="BackgroundImageFix" result="shape"/>
<feGaussianBlur stdDeviation="9.00019" result="effect1_foregroundBlur_269_247"/>
</filter>
<filter id="filter4_f_269_247" x="116.627" y="6.28131" width="540.782" height="77.7587" filterUnits="userSpaceOnUse" color-interpolation-filters="sRGB">
<feFlood flood-opacity="0" result="BackgroundImageFix"/>
<feBlend mode="normal" in="SourceGraphic" in2="BackgroundImageFix" result="shape"/>
<feGaussianBlur stdDeviation="1.53" result="effect1_foregroundBlur_269_247"/>
</filter>
</defs>
</svg>
